<svg width="10" height="8" viewBox="0 0 10 8" fill="none" xmlns="http://www.w3.org/2000/svg">
<path fill-rule="evenodd" clip-rule="evenodd" d="M8.75 0C8.405 0 8.0925 0.14 7.86625 0.36625L6.61625 1.61625L3.75 4.4825L2.13375 2.86625C1.9075 2.64 1.595 2.5 1.25 2.5C0.56 2.5 0 3.06 0 3.75C0 4.095 0.14 4.4075 0.36625 4.63375L2.86625 7.13375C3.0925 7.36 3.405 7.5 3.75 7.5C4.095 7.5 4.4075 7.36 4.63375 7.13375L8.38375 3.38375L9.63375 2.13375C9.86 1.9075 10 1.595 10 1.25C10 0.559375 9.44 0 8.75 0" fill="white"/>
</svg>
